<svg width="38" height="38" viewBox="0 0 38 38" fill="none" xmlns="http://www.w3.org/2000/svg">
<path fill-rule="evenodd" clip-rule="evenodd" d="M25.6668 13.9997C25.6668 15.7678 24.9645 17.4635 23.7142 18.7137C22.464 19.964 20.7683 20.6663 19.0002 20.6663C17.2321 20.6663 15.5364 19.964 14.2861 18.7137C13.0359 17.4635 12.3335 15.7678 12.3335 13.9997C12.3335 12.2316 13.0359 10.5359 14.2861 9.28563C15.5364 8.03539 17.2321 7.33301 19.0002 7.33301C20.7683 7.33301 22.464 8.03539 23.7142 9.28563C24.9645 10.5359 25.6668 12.2316 25.6668 13.9997ZM22.3335 13.9997C22.3335 14.8837 21.9823 15.7316 21.3572 16.3567C20.7321 16.9818 19.8842 17.333 19.0002 17.333C18.1161 17.333 17.2683 16.9818 16.6431 16.3567C16.018 15.7316 15.6668 14.8837 15.6668 13.9997C15.6668 13.1156 16.018 12.2678 16.6431 11.6427C17.2683 11.0175 18.1161 10.6663 19.0002 10.6663C19.8842 10.6663 20.7321 11.0175 21.3572 11.6427C21.9823 12.2678 22.3335 13.1156 22.3335 13.9997Z" fill="black"/>
<path fill-rule="evenodd" clip-rule="evenodd" d="M19.0001 0.666504C8.87508 0.666504 0.666748 8.87484 0.666748 18.9998C0.666748 29.1248 8.87508 37.3332 19.0001 37.3332C29.1251 37.3332 37.3334 29.1248 37.3334 18.9998C37.3334 8.87484 29.1251 0.666504 19.0001 0.666504ZM4.00008 18.9998C4.00008 22.4832 5.18841 25.6898 7.18008 28.2365C8.5788 26.3997 10.3832 24.9111 12.4525 23.887C14.5217 22.863 16.7997 22.3312 19.1084 22.3332C21.3873 22.331 23.6366 22.849 25.685 23.8478C27.7333 24.8466 29.5267 26.2997 30.9284 28.0965C32.3725 26.2025 33.3448 23.9919 33.7649 21.6475C34.185 19.3031 34.0408 16.8924 33.3442 14.6148C32.6477 12.3372 31.4188 10.2582 29.7592 8.5499C28.0997 6.84155 26.0572 5.55294 23.8007 4.79068C21.5443 4.02843 19.1387 3.81446 16.7832 4.16646C14.4276 4.51846 12.1897 5.42632 10.2547 6.81493C8.31966 8.20353 6.7431 10.033 5.65546 12.1518C4.56783 14.2707 4.00038 16.6181 4.00008 18.9998ZM19.0001 33.9998C15.5567 34.005 12.2172 32.8204 9.54675 30.6465C10.6216 29.1077 12.0523 27.8514 13.7171 26.9843C15.3818 26.1173 17.2314 25.6652 19.1084 25.6665C20.962 25.665 22.7892 26.1058 24.4383 26.9522C26.0874 27.7986 27.5107 29.0263 28.5901 30.5332C25.8989 32.7777 22.5044 34.0047 19.0001 33.9998Z" fill="black"/>
</svg>
