<svg width="84" height="84" viewBox="0 0 84 84" fill="none" xmlns="http://www.w3.org/2000/svg">
<g filter="url(#filter0_d_94_16)">
<circle cx="40" cy="40" r="30" fill="#FFD600"/>
<circle cx="40" cy="40" r="30" stroke="black" stroke-width="2"/>
</g>
<path d="M19.6045 27.7559V27.0967H27.7344V27.7559L25.7422 27.9023L29.6387 42.5361H29.6973L34.2236 26.7891H34.8828L40.1562 42.4775H40.2148L44.4043 27.9023L42.4268 27.7559V27.0967H47.0703V27.7559L45.2979 27.9023L39.3506 48.293H38.6914L33.3008 33.0146H33.2715L28.7891 48.293H28.1299L21.8164 27.9023L19.6045 27.7559Z" fill="black"/>
<path d="M38.4062 44.6143C38.4062 42.6025 38.7676 40.7666 39.4902 39.1064C40.2129 37.4463 41.2725 36.1133 42.6689 35.1074C44.0752 34.0918 45.6914 33.584 47.5176 33.584C50.2715 33.584 52.4883 34.5557 54.168 36.499C55.8574 38.4424 56.7021 40.9912 56.7021 44.1455C56.7021 45.2979 56.585 46.416 56.3506 47.5C56.126 48.584 55.7695 49.6143 55.2812 50.5908C54.793 51.5576 54.1973 52.4072 53.4941 53.1396C52.8008 53.8623 51.9463 54.4385 50.9307 54.8682C49.915 55.2979 48.8066 55.5127 47.6055 55.5127C44.7441 55.5127 42.4932 54.5166 40.8525 52.5244C39.2217 50.5322 38.4062 47.8955 38.4062 44.6143ZM42.332 44.292C42.332 46.2158 42.5225 47.9541 42.9033 49.5068C43.2842 51.0498 43.8701 52.3047 44.6611 53.2715C45.4619 54.2285 46.4141 54.707 47.5176 54.707C49.1582 54.707 50.4424 53.7549 51.3701 51.8506C52.3076 49.9463 52.7764 47.417 52.7764 44.2627C52.7764 40.9814 52.3174 38.5156 51.3994 36.8652C50.4912 35.2148 49.2266 34.3896 47.6055 34.3896C47.0391 34.3896 46.4971 34.5068 45.9795 34.7412C45.4717 34.9756 44.9932 35.3516 44.5439 35.8691C44.0947 36.3867 43.709 37.0264 43.3867 37.7881C43.0645 38.54 42.8057 39.4727 42.6104 40.5859C42.4248 41.6992 42.332 42.9346 42.332 44.292ZM42.918 57.5342C44.1094 56.5576 45.3398 56.0693 46.6094 56.0693C47.2246 56.0693 47.8203 56.167 48.3965 56.3623C48.9727 56.5576 49.4561 56.7773 49.8467 57.0215C51.6338 58.1738 52.791 58.8965 53.3184 59.1895C53.9922 59.5703 54.5781 59.7607 55.0762 59.7607C55.5645 59.7607 55.9307 59.6143 56.1748 59.3213C56.4189 59.0283 56.541 58.6914 56.541 58.3105C56.541 58.291 56.5361 58.2568 56.5264 58.208C56.5264 58.1592 56.5264 58.125 56.5264 58.1055L56.4824 58.1201C56.2773 58.4717 55.9551 58.6475 55.5156 58.6475C55.0469 58.6475 54.6709 58.501 54.3877 58.208C54.1045 57.9248 53.9629 57.5684 53.9629 57.1387C53.9629 56.6699 54.1094 56.2891 54.4023 55.9961C54.7051 55.7129 55.0811 55.5713 55.5303 55.5713C56.126 55.5713 56.585 55.7959 56.9072 56.2451C57.2393 56.7041 57.4053 57.2656 57.4053 57.9297C57.4053 58.3105 57.3174 58.7109 57.1416 59.1309C56.9756 59.5508 56.7363 59.9463 56.4238 60.3174C56.1113 60.6885 55.6963 60.9961 55.1787 61.2402C54.6709 61.4844 54.1143 61.6064 53.5088 61.6064C53.0889 61.6064 52.7471 61.582 52.4834 61.5332C52.2197 61.4941 51.8193 61.3623 51.2822 61.1377C50.7549 60.9131 50.1006 60.5713 49.3193 60.1123L46.6973 58.4717C46.4043 58.2959 46.0771 58.1348 45.7158 57.9883C45.3643 57.8418 45.0566 57.7686 44.793 57.7686C44.207 57.7686 43.6797 57.8857 43.2109 58.1201L42.918 57.5342Z" fill="black"/>
<defs>
<filter id="filter0_d_94_16" x="0" y="0" width="84" height="84" filterUnits="userSpaceOnUse" color-interpolation-filters="sRGB">
<feFlood flood-opacity="0" result="BackgroundImageFix"/>
<feColorMatrix in="SourceAlpha" type="matrix" values="0 0 0 0 0 0 0 0 0 0 0 0 0 0 0 0 0 0 127 0" result="hardAlpha"/>
<feMorphology radius="1" operator="dilate" in="SourceAlpha" result="effect1_dropShadow_94_16"/>
<feOffset dx="2" dy="2"/>
<feGaussianBlur stdDeviation="5"/>
<feComposite in2="hardAlpha" operator="out"/>
<feColorMatrix type="matrix" values="0 0 0 0 1 0 0 0 0 0.668657 0 0 0 0 0.0254628 0 0 0 1 0"/>
<feBlend mode="normal" in2="BackgroundImageFix" result="effect1_dropShadow_94_16"/>
<feBlend mode="normal" in="SourceGraphic" in2="effect1_dropShadow_94_16" result="shape"/>
</filter>
</defs>
</svg>
